<?xml version="1.0" encoding="iso-8859-1"?>
<!-- Generator: Adobe Illustrator 19.0.0, SVG Export Plug-In . SVG Version: 6.00 Build 0)  -->
<svg version="1.1" id="Layer_1" xmlns="http://www.w3.org/2000/svg" xmlns:xlink="http://www.w3.org/1999/xlink" x="0px" y="0px"
	 viewBox="0 0 503.934 503.934" style="enable-background:new 0 0 503.934 503.934;" xml:space="preserve">
<g>
	<g>
		<g>
			<path d="M310.723,268.699c-4.642,0-8.393,3.752-8.393,8.393c0,23.493-7.705,33.523-14.512,42.379
				c-3.777,4.919-7.621,9.988-9.493,16.485h-1.88c-0.63-11.415,0.965-19.196,2.434-26.137c2.224-10.534,4.323-20.472-2.426-36.067
				c-1.838-4.247-6.782-6.211-11.029-4.365c-4.255,1.838-6.22,6.782-4.373,11.037c4.616,10.685,3.408,16.418,1.402,25.927
				c-1.578,7.479-3.425,16.527-2.803,29.604h-3.29c-5.019-7.705-4.768-14.143-4.407-22.671c0.453-10.651,1.024-23.913-9.703-40.708
				c-2.493-3.903-7.68-5.053-11.591-2.56c-3.903,2.493-5.053,7.68-2.552,11.591c7.873,12.33,7.504,20.967,7.076,30.955
				c-0.428,10.047-0.789,21.361,8.393,34.312v56.337c0,27.774-22.595,50.361-50.361,50.361h-25.18
				c-27.774,0-50.361-22.587-50.361-50.47v-17.005c9.258,0,16.787-7.529,16.787-16.787v-33.574h33.574
				c9.258,0,16.787-7.529,16.787-16.787V117.508c0-9.258-7.529-16.787-16.787-16.787h-8.393V25.18
				c0-13.883-11.298-25.18-25.18-25.18H50.526c-13.891,0-25.18,11.298-25.18,25.18v75.541h-8.393
				c-9.266,0-16.787,7.529-16.787,16.787v201.443c0,9.258,7.521,16.787,16.787,16.787h33.574v33.574
				c0,9.258,7.521,16.787,16.787,16.787v17.114c0,55.539,45.182,100.721,100.721,100.721h25.18
				c55.531,0,100.721-45.182,100.721-100.721v-58.863c0-0.017-0.017-0.034-0.017-0.05c0-0.025,0.017-0.042,0.017-0.059
				c0-4.935,2.468-8.385,7.202-14.546c7.588-9.879,17.979-23.409,17.979-52.602C319.117,272.451,315.356,268.699,310.723,268.699z
				 M42.133,100.721V25.18c0-4.633,3.76-8.393,8.393-8.393h83.934c4.625,0,8.393,3.76,8.393,8.393v75.541H42.133z M61.371,274.524
				c-3.273-3.282-3.273-8.587,0-11.868l36.033-36.033H67.313c-1.1,0-2.182-0.227-3.215-0.646c-2.048-0.848-3.685-2.484-4.532-4.541
				c-0.848-2.048-0.848-4.365,0-6.413c0.42-1.032,1.041-1.956,1.813-2.736l50.352-50.352c3.282-3.282,8.595-3.282,11.877,0
				c3.273,3.282,3.273,8.586,0,11.868l-36.033,36.033h30.099c1.091,0,2.174,0.218,3.198,0.646c2.056,0.848,3.693,2.484,4.541,4.541
				c0.848,2.048,0.848,4.365,0,6.413c-0.42,1.032-1.041,1.956-1.813,2.736l-50.352,50.352c-1.645,1.637-3.794,2.459-5.934,2.459
				C65.165,276.984,63.016,276.161,61.371,274.524z M75.707,369.311h-8.393v-33.574h50.361l0.008,33.574h-8.402H75.707z"/>
			<path d="M403.047,0.222h-50.361c-55.539,0-100.721,45.182-100.721,100.721v67.03c0,4.935-2.468,8.385-7.202,14.546
				c-7.588,9.879-17.979,23.409-17.979,52.602c0,4.642,3.76,8.393,8.393,8.393s8.393-3.752,8.393-8.393
				c0-23.493,7.705-33.523,14.504-42.378c3.76-4.893,7.579-9.929,9.459-16.376h1.922c0.613,11.356-0.974,19.112-2.443,26.036
				c-2.216,10.525-4.314,20.463,2.426,36.058c1.376,3.164,4.465,5.053,7.705,5.053c1.116,0,2.249-0.218,3.332-0.688
				c4.255-1.838,6.211-6.782,4.373-11.037c-4.625-10.685-3.416-16.418-1.41-25.927c1.578-7.462,3.416-16.468,2.812-29.495h3.357
				c4.952,7.663,4.7,14.084,4.331,22.57c-0.453,10.651-1.016,23.913,9.703,40.7c1.603,2.51,4.314,3.878,7.084,3.878
				c1.544,0,3.114-0.42,4.507-1.318c3.911-2.493,5.053-7.688,2.56-11.591c-7.873-12.33-7.504-20.958-7.076-30.947
				c0.428-10.047,0.789-21.361-8.393-34.312v-64.403c0-27.774,22.587-50.361,50.361-50.361h50.361
				c27.774,0,50.361,22.587,50.361,50.361v394.492c0,4.642,3.76,8.393,8.393,8.393h33.574c4.633,0,8.393-3.752,8.393-8.393V100.943
				C503.768,45.403,458.586,0.222,403.047,0.222z"/>
		</g>
	</g>
</g>
<g>
</g>
<g>
</g>
<g>
</g>
<g>
</g>
<g>
</g>
<g>
</g>
<g>
</g>
<g>
</g>
<g>
</g>
<g>
</g>
<g>
</g>
<g>
</g>
<g>
</g>
<g>
</g>
<g>
</g>
</svg>
